<svg aria-hidden="true" style="position: absolute; width: 0; height: 0; overflow: hidden;" version="1.1" xmlns="http://www.w3.org/2000/svg" xmlns:xlink="http://www.w3.org/1999/xlink">
<defs>
<symbol id="icon-mail" viewBox="0 0 51 32">
<path fill="#094c5d" style="fill: var(--color1, #094c5d)" d="M2.79 0l20.463 18.705c1.211 1.109 3.109 1.109 4.318 0l20.463-18.705h-45.243zM0 2.313v27.174l14.351-14.056-14.351-13.118zM50.824 2.313l-14.351 13.118 14.351 14.056v-27.174zM17.003 17.858l-14.436 14.142h45.69l-14.439-14.142-3.769 3.444c-1.301 1.189-2.972 1.785-4.641 1.785s-3.336-0.595-4.637-1.785l-3.769-3.444z"></path>
</symbol>
<symbol id="icon-key" viewBox="0 0 19 32">
<path fill="#094c5d" style="fill: var(--color1, #094c5d)" d="M9.739 0c-5.379 0-9.739 4.176-9.739 9.328 0 4.698 3.63 8.573 8.348 9.221v12.1c-0.003 0.177 0.031 0.352 0.1 0.516s0.171 0.313 0.3 0.439c0.129 0.126 0.284 0.226 0.454 0.294s0.353 0.103 0.537 0.103c0.184 0 0.367-0.035 0.537-0.103s0.324-0.168 0.454-0.294c0.129-0.126 0.232-0.275 0.3-0.439s0.103-0.339 0.1-0.516v-12.1c4.717-0.648 8.348-4.523 8.348-9.221 0-5.152-4.36-9.328-9.739-9.328zM9.739 2.665c1.729 0 3.13 0.895 3.13 1.999s-1.401 1.999-3.13 1.999c-1.729 0-3.13-0.895-3.13-1.999s1.401-1.999 3.13-1.999z"></path>
</symbol>
<symbol id="icon-tel" viewBox="0 0 33 32">
<path fill="#094c5d" style="fill: var(--color1, #094c5d)" d="M25.054 20.715c-0.591-0.331-1.316-0.324-1.904 0.010l-2.976 1.696c-0.666 0.38-1.498 0.335-2.109-0.121-1.056-0.789-2.756-2.116-4.236-3.531s-2.867-3.041-3.692-4.051c-0.477-0.584-0.524-1.38-0.127-2.017l1.773-2.847c0.351-0.562 0.353-1.262 0.007-1.827l-4.367-7.135c-0.423-0.69-1.264-1.030-2.077-0.839-0.79 0.184-1.815 0.632-2.89 1.661-3.366 3.219-5.153 8.65 7.504 20.757s18.333 10.399 21.7 7.178c1.078-1.031 1.545-2.013 1.738-2.77 0.196-0.776-0.153-1.575-0.873-1.978-1.798-1.006-5.675-3.178-7.473-4.185z"></path>
</symbol>
<symbol id="icon-menu-close" viewBox="0 0 32 32">
<path d="M23.733 10.304l-1.504-1.504-5.963 5.963-5.963-5.963-1.504 1.504 5.963 5.963-5.963 5.963 1.504 1.504 5.963-5.963 5.963 5.963 1.504-1.504-5.963-5.963 5.963-5.963z"></path>
</symbol>
<symbol id="icon-menu-open" viewBox="0 0 32 32">
<path d="M6.4 11.733v-2.133h19.2v2.133h-19.2zM6.4 17.067h19.2v-2.133h-19.2v2.133zM6.4 22.4h19.2v-2.133h-19.2v2.133z"></path>
</symbol>
<symbol id="icon-mark" viewBox="0 0 32 32">
<path fill="#56c297" style="fill: var(--color1, #56c297)" d="M32 16c0 8.837-7.163 16-16 16s-16-7.163-16-16c0-8.837 7.163-16 16-16s16 7.163 16 16z"></path>
<path fill="none" stroke="#fff" style="stroke: var(--color2, #fff)" stroke-linejoin="miter" stroke-linecap="butt" stroke-miterlimit="4" stroke-width="2.9091" d="M13.714 10.971l5.029 5.029-5.029 5.029"></path>
</symbol>
<symbol id="icon-advantages" viewBox="0 0 27 32">
<path fill="#71edbb" style="fill: var(--color1, #71edbb)" d="M8.342 0c-1.662 0-3.712 0.372-5.404 1.63-1.692 1.261-2.938 3.438-2.938 6.717 0 4 0.798 6.793 1.616 8.598 0.407 0.899 0.831 1.56 1.154 2.003l-2.031 7.139v0.008c-0.030 0.114-0.041 0.228-0.038 0.34h-0.005v4.174c0 0.761 0.63 1.391 1.39 1.391h23.635c0.76 0 1.39-0.63 1.39-1.391v-4.174h-0.003c0-0.111-0.011-0.226-0.041-0.34l-0.003-0.008-2.756-9.728c-0.155-0.622-0.722-1.054-1.358-1.054h-0.011v-10.435h-1.39v2.783h-4.866v1.391h4.866v6.261h-15.293v-6.261h4.866v-1.391h-4.866v-2.783h-1.39v10.435c-0.635 0-1.203 0.432-1.358 1.052l-0.228 0.796c-0.128-0.239-0.258-0.476-0.396-0.78-0.739-1.622-1.494-4.209-1.494-8.024 0-2.94 1.021-4.59 2.379-5.601 1.355-1.011 3.125-1.356 4.573-1.356 2.542 0 3.652 0.91 4.247 1.783 0.25 0.37 0.386 0.717 0.475 1.016-0.692 0.073-1.246 0.663-1.246 1.375v5.565c0 0.761 0.63 1.391 1.39 1.391v1.391h1.39v-1.391c0.76 0 1.39-0.63 1.39-1.391v-5.565c0-0.761-0.63-1.391-1.39-1.391h-0.103c-0.103-0.473-0.31-1.122-0.758-1.783-0.828-1.215-2.498-2.391-5.396-2.391zM13.208 5.565h1.39v5.565h-1.39v-5.565zM4.866 16.696v2.087h1.39v-2.087h1.263l-1.388 8.348h15.543l-0.136-0.81-1.252-7.538h1.263v2.087h1.39v-2.087h0.011c0.014 0 0.011 0.003 0.011 0v0.011l2.759 9.731c0.003 0.011 0.019-0.003-0.011-0.003h-23.614c-0.030 0-0.014 0.014-0.011 0l2.77-9.736c0 0-0.003-0.003 0.011-0.003zM8.931 16.696h2.132l-0.581 6.957h-2.71l1.16-6.957zM12.459 16.696h2.889l0.581 6.957h-4.051l0.581-6.957zM16.744 16.696h2.132l1.159 6.957h-2.71l-0.581-6.957zM2.085 27.826c0.003 0 0.008 0 0.011 0h23.614c0.003 0 0.005 0 0.011 0v2.783h-23.635v-2.783zM13.903 28.522c-0.383 0-0.695 0.313-0.695 0.696s0.312 0.696 0.695 0.696c0.383 0 0.695-0.313 0.695-0.696s-0.312-0.696-0.695-0.696z"></path>
</symbol>
<symbol id="icon-instagram-1" viewBox="0 0 32 32">
<path fill="#56c297" style="fill: var(--color1, #56c297)" d="M22 0h-12c-5.522 0-10 4.478-10 10v12c0 5.522 4.478 10 10 10h12c5.522 0 10-4.478 10-10v-12c0-5.522-4.478-10-10-10zM29 22c0 3.86-3.14 7-7 7h-12c-3.86 0-7-3.14-7-7v-12c0-3.86 3.14-7 7-7h12c3.86 0 7 3.14 7 7v12z"></path>
<path fill="#56c297" style="fill: var(--color1, #56c297)" d="M16 8c-4.418 0-8 3.582-8 8s3.582 8 8 8c4.418 0 8-3.582 8-8s-3.582-8-8-8zM16 21c-2.756 0-5-2.244-5-5 0-2.758 2.244-5 5-5s5 2.242 5 5c0 2.756-2.244 5-5 5z"></path>
<path fill="#56c297" style="fill: var(--color1, #56c297)" d="M24.599 8.466c0.589 0 1.066-0.477 1.066-1.066s-0.477-1.066-1.066-1.066c-0.589 0-1.066 0.477-1.066 1.066s0.477 1.066 1.066 1.066z"></path>
</symbol>
<symbol id="icon-viber-1" viewBox="0 0 32 32">
<path fill="#56c297" style="fill: var(--color1, #56c297)" d="M30.873 18.524c0.955-8.036-0.459-13.109-3.008-15.404l0.001-0.001c-4.115-3.919-18.011-4.499-22.933 0.176-2.211 2.287-2.989 5.643-3.075 9.797-0.085 4.156-0.187 11.941 7.068 14.053h0.007l-0.007 3.225c0 0-0.049 1.307 0.785 1.569 0.955 0.309 1.387-0.297 4.356-3.844 4.965 0.431 8.779-0.556 9.212-0.7 1.003-0.336 6.676-1.087 7.593-8.872zM14.557 25.827c0 0-3.143 3.919-4.12 4.936-0.32 0.331-0.671 0.3-0.665-0.356 0-0.431 0.024-5.355 0.024-5.355-6.151-1.763-5.788-8.392-5.721-11.86 0.067-3.469 0.701-6.311 2.573-8.224 4.319-4.049 16.501-3.144 19.605-0.227 3.795 3.364 2.444 12.868 2.452 13.192-0.78 6.499-5.377 6.911-6.223 7.192-0.361 0.12-3.715 0.983-7.925 0.701z"></path>
<path fill="#56c297" style="fill: var(--color1, #56c297)" d="M16.296 5.729c-0.513 0-0.513 0.8 0 0.807 3.983 0.031 7.263 2.807 7.299 7.899 0 0.537 0.787 0.531 0.78-0.007h-0.001c-0.043-5.487-3.624-8.668-8.077-8.699z"></path>
<path fill="#56c297" style="fill: var(--color1, #56c297)" d="M21.535 13.591c-0.012 0.531 0.773 0.556 0.78 0.019 0.065-3.025-1.8-5.517-5.305-5.78-0.513-0.037-0.567 0.769-0.055 0.807 3.040 0.231 4.641 2.305 4.58 4.955z"></path>
<path fill="#56c297" style="fill: var(--color1, #56c297)" d="M20.696 17.032c-0.659-0.381-1.329-0.144-1.607 0.231l-0.58 0.751c-0.295 0.381-0.845 0.331-0.845 0.331-4.019-1.063-5.093-5.268-5.093-5.268s-0.049-0.569 0.319-0.875l0.725-0.6c0.363-0.288 0.592-0.981 0.223-1.663-0.987-1.783-1.649-2.397-1.987-2.869-0.355-0.444-0.888-0.544-1.443-0.244h-0.012c-1.153 0.675-2.416 1.937-2.012 3.237 0.689 1.371 1.956 5.74 5.993 9.041 1.897 1.561 4.9 3.161 6.175 3.531l0.012 0.019c1.256 0.419 2.477-0.893 3.129-2.081v-0.009c0.289-0.575 0.193-1.119-0.229-1.475-0.749-0.731-1.88-1.537-2.768-2.056z"></path>
<path fill="#56c297" style="fill: var(--color1, #56c297)" d="M17.559 10.806c1.281 0.075 1.903 0.744 1.969 2.119 0.024 0.537 0.804 0.5 0.78-0.037-0.085-1.795-1.021-2.795-2.707-2.888-0.513-0.031-0.561 0.776-0.043 0.807z"></path>
</symbol>
<symbol id="icon-telegram" viewBox="0 0 36 32">
<path fill="#56c297" style="fill: var(--color1, #56c297)" d="M35.615 2.202c-0.442-0.54-1.104-0.838-1.864-0.838-0.413 0-0.851 0.087-1.301 0.259l-30.621 11.689c-1.625 0.62-1.844 1.551-1.83 2.050s0.285 1.416 1.943 1.944c0.010 0.003 0.020 0.006 0.030 0.009l6.351 1.818 3.435 9.822c0.468 1.339 1.52 2.171 2.744 2.171 0.772 0 1.531-0.323 2.196-0.935l3.929-3.617 5.698 4.588c0.001 0.001 0.001 0.001 0.002 0.001l0.054 0.044c0.005 0.004 0.010 0.008 0.015 0.012 0.633 0.491 1.325 0.751 2 0.751h0c1.32 0 2.37-0.977 2.676-2.488l5.017-24.773c0.201-0.994 0.033-1.884-0.476-2.506zM10.45 18.787l12.254-6.26-7.63 8.108c-0.125 0.133-0.214 0.295-0.257 0.472l-1.471 5.96-2.895-8.279zM15.263 28.631c-0.051 0.047-0.102 0.088-0.153 0.127l1.365-5.529 2.483 1.999-3.695 3.402zM34.014 4.287l-5.017 24.774c-0.048 0.237-0.203 0.789-0.599 0.789-0.196 0-0.442-0.107-0.694-0.301l-6.457-5.199c-0.001-0.001-0.002-0.002-0.003-0.002l-3.842-3.094 11.034-11.725c0.353-0.375 0.385-0.95 0.076-1.363s-0.871-0.542-1.33-0.307l-18.148 9.271-6.438-1.842 30.611-11.685c0.259-0.099 0.439-0.119 0.545-0.119 0.065 0 0.18 0.008 0.223 0.060 0.056 0.069 0.128 0.303 0.039 0.743z"></path>
</symbol>
<symbol id="icon-whatsapp-1" viewBox="0 0 32 32">
<path fill="#56c297" style="fill: var(--color1, #56c297)" d="M32 15.588c0 8.609-7.033 15.587-15.71 15.587-2.754 0-5.34-0.704-7.592-1.938l-8.697 2.762 2.835-8.366c-1.43-2.348-2.253-5.105-2.253-8.047 0.001-8.609 7.032-15.587 15.709-15.587 8.677 0.002 15.708 6.98 15.708 15.588zM16.289 2.486c-7.282 0-13.206 5.879-13.206 13.106 0 2.867 0.935 5.522 2.516 7.682l-1.649 4.866 5.073-1.612c2.087 1.369 4.584 2.166 7.266 2.166 7.282 0 13.208-5.878 13.208-13.105 0.002-7.224-5.925-13.103-13.208-13.103zM24.223 19.179c-0.098-0.158-0.355-0.254-0.739-0.446-0.383-0.192-2.279-1.116-2.631-1.241-0.355-0.128-0.611-0.193-0.868 0.19-0.254 0.383-0.992 1.243-1.219 1.5-0.224 0.256-0.449 0.288-0.834 0.099-0.385-0.194-1.627-0.595-3.098-1.896-1.145-1.014-1.918-2.263-2.141-2.646-0.226-0.382-0.023-0.588 0.168-0.778 0.172-0.172 0.385-0.447 0.578-0.671 0.193-0.222 0.257-0.38 0.385-0.635 0.126-0.256 0.063-0.478-0.032-0.671-0.096-0.192-0.865-2.070-1.187-2.835-0.32-0.764-0.641-0.638-0.866-0.638-0.224 0-0.481-0.031-0.738-0.031s-0.674 0.093-1.026 0.476c-0.352 0.383-1.347 1.306-1.347 3.187 0 1.882 1.378 3.697 1.571 3.952 0.194 0.254 2.665 4.239 6.579 5.768 3.916 1.529 3.916 1.018 4.622 0.954 0.707-0.065 2.279-0.924 2.598-1.815 0.321-0.895 0.321-1.662 0.224-1.822z"></path>
</symbol>
<symbol id="icon-right-arrow" viewBox="0 0 21 32">
<path fill="none" stroke="#fff" style="stroke: var(--color1, #fff)" stroke-linejoin="miter" stroke-linecap="butt" stroke-miterlimit="4" stroke-width="4.8" d="M3.2 3.2l12.8 12.8-12.8 12.8"></path>
</symbol>
<symbol id="icon-dna" viewBox="0 0 25 32">
<path fill="#56c297" style="fill: var(--color1, #56c297)" d="M1.238 0c-0.333 0.005-0.65 0.139-0.882 0.373s-0.36 0.548-0.355 0.873c0 3.661 1.599 6.664 3.85 9.158 1.888 2.093 4.232 3.878 6.607 5.597-5.351 3.879-10.457 8.062-10.457 14.751 0 0.68 0.563 1.229 1.257 1.229s1.257-0.549 1.257-1.229c0-5.745 4.79-9.435 10.057-13.224 2.095 1.509 4.095 3.019 5.755 4.618h-9.018c0 0-1.468 1.13-2.156 2.459h13.372c0.569 0.784 1.034 1.599 1.382 2.459h-16.144c-0.542 1.136-0.631 2.459-0.631 2.459h17.418c0.048 0.399 0.079 0.806 0.079 1.23-0.002 0.163 0.028 0.325 0.091 0.476s0.154 0.289 0.271 0.405c0.117 0.116 0.256 0.208 0.41 0.271s0.319 0.095 0.485 0.095c0.167 0 0.332-0.032 0.485-0.095s0.293-0.155 0.41-0.271c0.117-0.116 0.209-0.253 0.271-0.405s0.093-0.313 0.090-0.476c0-3.661-1.599-6.664-3.85-9.159s-5.149-4.558-7.977-6.587-5.588-4.023-7.58-6.231c-1.992-2.208-3.221-4.552-3.221-7.53 0.002-0.165-0.029-0.328-0.093-0.48s-0.157-0.291-0.276-0.407c-0.119-0.116-0.261-0.208-0.417-0.27s-0.323-0.092-0.491-0.090zM23.886 0.017c-0.694 0-1.257 0.55-1.257 1.229 0 0.422-0.036 0.829-0.086 1.229h-17.411c0 0 0.089 1.323 0.631 2.459h16.139c-0.351 0.866-0.829 1.678-1.392 2.459h-13.357c0.688 1.329 2.156 2.459 2.156 2.459h9.033c-1.104 1.064-2.34 2.082-3.668 3.081 0.044 0.031 0.084 0.060 0.128 0.091 0.65 0.466 1.312 0.943 1.972 1.426 4.518-3.472 8.37-7.394 8.37-13.205 0-0.68-0.563-1.229-1.257-1.229z"></path>
</symbol>
</defs>
</svg>
