<svg aria-hidden="true" style="position: absolute; width: 0; height: 0; overflow: hidden;" version="1.1" xmlns="http://www.w3.org/2000/svg" xmlns:xlink="http://www.w3.org/1999/xlink">
<defs>
<symbol id="icon-mail" viewBox="0 0 51 32">
<path fill="#094c5d" style="fill: var(--color1, #094c5d)" d="M2.79 0l20.463 18.705c1.211 1.109 3.109 1.109 4.318 0l20.463-18.705h-45.243zM0 2.313v27.174l14.351-14.056-14.351-13.118zM50.824 2.313l-14.351 13.118 14.351 14.056v-27.174zM17.003 17.858l-14.436 14.142h45.69l-14.439-14.142-3.769 3.444c-1.301 1.189-2.972 1.785-4.641 1.785s-3.336-0.595-4.637-1.785l-3.769-3.444z"></path>
</symbol>
<symbol id="icon-key" viewBox="0 0 19 32">
<path fill="#094c5d" style="fill: var(--color1, #094c5d)" d="M9.739 0c-5.379 0-9.739 4.176-9.739 9.328 0 4.698 3.63 8.573 8.348 9.221v12.1c-0.003 0.177 0.031 0.352 0.1 0.516s0.171 0.313 0.3 0.439c0.129 0.126 0.284 0.226 0.454 0.294s0.353 0.103 0.537 0.103c0.184 0 0.367-0.035 0.537-0.103s0.324-0.168 0.454-0.294c0.129-0.126 0.232-0.275 0.3-0.439s0.103-0.339 0.1-0.516v-12.1c4.717-0.648 8.348-4.523 8.348-9.221 0-5.152-4.36-9.328-9.739-9.328zM9.739 2.665c1.729 0 3.13 0.895 3.13 1.999s-1.401 1.999-3.13 1.999c-1.729 0-3.13-0.895-3.13-1.999s1.401-1.999 3.13-1.999z"></path>
</symbol>
<symbol id="icon-tel" viewBox="0 0 33 32">
<path fill="#094c5d" style="fill: var(--color1, #094c5d)" d="M25.054 20.715c-0.591-0.331-1.316-0.324-1.904 0.010l-2.976 1.696c-0.666 0.38-1.498 0.335-2.109-0.121-1.056-0.789-2.756-2.116-4.236-3.531s-2.867-3.041-3.692-4.051c-0.477-0.584-0.524-1.38-0.127-2.017l1.773-2.847c0.351-0.562 0.353-1.262 0.007-1.827l-4.367-7.135c-0.423-0.69-1.264-1.030-2.077-0.839-0.79 0.184-1.815 0.632-2.89 1.661-3.366 3.219-5.153 8.65 7.504 20.757s18.333 10.399 21.7 7.178c1.078-1.031 1.545-2.013 1.738-2.77 0.196-0.776-0.153-1.575-0.873-1.978-1.798-1.006-5.675-3.178-7.473-4.185z"></path>
</symbol>
<symbol id="icon-menu-close" viewBox="0 0 32 32">
<path d="M23.733 10.304l-1.504-1.504-5.963 5.963-5.963-5.963-1.504 1.504 5.963 5.963-5.963 5.963 1.504 1.504 5.963-5.963 5.963 5.963 1.504-1.504-5.963-5.963 5.963-5.963z"></path>
</symbol>
<symbol id="icon-menu-open" viewBox="0 0 32 32">
<path d="M6.4 11.733v-2.133h19.2v2.133h-19.2zM6.4 17.067h19.2v-2.133h-19.2v2.133zM6.4 22.4h19.2v-2.133h-19.2v2.133z"></path>
</symbol>
<symbol id="icon-mark" viewBox="0 0 32 32">
<path fill="#56c297" style="fill: var(--color1, #56c297)" d="M32 16c0 8.837-7.163 16-16 16s-16-7.163-16-16c0-8.837 7.163-16 16-16s16 7.163 16 16z"></path>
<path fill="none" stroke="#fff" style="stroke: var(--color2, #fff)" stroke-linejoin="miter" stroke-linecap="butt" stroke-miterlimit="4" stroke-width="2.9091" d="M13.714 10.971l5.029 5.029-5.029 5.029"></path>
</symbol>
<symbol id="icon-advantages" viewBox="0 0 27 32">
<path fill="#71edbb" style="fill: var(--color1, #71edbb)" d="M8.342 0c-1.662 0-3.712 0.372-5.404 1.63-1.692 1.261-2.938 3.438-2.938 6.717 0 4 0.798 6.793 1.616 8.598 0.407 0.899 0.831 1.56 1.154 2.003l-2.031 7.139v0.008c-0.030 0.114-0.041 0.228-0.038 0.34h-0.005v4.174c0 0.761 0.63 1.391 1.39 1.391h23.635c0.76 0 1.39-0.63 1.39-1.391v-4.174h-0.003c0-0.111-0.011-0.226-0.041-0.34l-0.003-0.008-2.756-9.728c-0.155-0.622-0.722-1.054-1.358-1.054h-0.011v-10.435h-1.39v2.783h-4.866v1.391h4.866v6.261h-15.293v-6.261h4.866v-1.391h-4.866v-2.783h-1.39v10.435c-0.635 0-1.203 0.432-1.358 1.052l-0.228 0.796c-0.128-0.239-0.258-0.476-0.396-0.78-0.739-1.622-1.494-4.209-1.494-8.024 0-2.94 1.021-4.59 2.379-5.601 1.355-1.011 3.125-1.356 4.573-1.356 2.542 0 3.652 0.91 4.247 1.783 0.25 0.37 0.386 0.717 0.475 1.016-0.692 0.073-1.246 0.663-1.246 1.375v5.565c0 0.761 0.63 1.391 1.39 1.391v1.391h1.39v-1.391c0.76 0 1.39-0.63 1.39-1.391v-5.565c0-0.761-0.63-1.391-1.39-1.391h-0.103c-0.103-0.473-0.31-1.122-0.758-1.783-0.828-1.215-2.498-2.391-5.396-2.391zM13.208 5.565h1.39v5.565h-1.39v-5.565zM4.866 16.696v2.087h1.39v-2.087h1.263l-1.388 8.348h15.543l-0.136-0.81-1.252-7.538h1.263v2.087h1.39v-2.087h0.011c0.014 0 0.011 0.003 0.011 0v0.011l2.759 9.731c0.003 0.011 0.019-0.003-0.011-0.003h-23.614c-0.030 0-0.014 0.014-0.011 0l2.77-9.736c0 0-0.003-0.003 0.011-0.003zM8.931 16.696h2.132l-0.581 6.957h-2.71l1.16-6.957zM12.459 16.696h2.889l0.581 6.957h-4.051l0.581-6.957zM16.744 16.696h2.132l1.159 6.957h-2.71l-0.581-6.957zM2.085 27.826c0.003 0 0.008 0 0.011 0h23.614c0.003 0 0.005 0 0.011 0v2.783h-23.635v-2.783zM13.903 28.522c-0.383 0-0.695 0.313-0.695 0.696s0.312 0.696 0.695 0.696c0.383 0 0.695-0.313 0.695-0.696s-0.312-0.696-0.695-0.696z"></path>
</symbol>
</defs>
</svg>
