<svg aria-hidden="true" style="position: absolute; width: 0; height: 0; overflow: hidden;" version="1.1" xmlns="http://www.w3.org/2000/svg" xmlns:xlink="http://www.w3.org/1999/xlink">
<defs>
<symbol id="icon-mail" viewBox="0 0 51 32">
<path fill="#094c5d" style="fill: var(--color1, #094c5d)" d="M2.79 0l20.463 18.705c1.211 1.109 3.109 1.109 4.318 0l20.463-18.705h-45.243zM0 2.313v27.174l14.351-14.056-14.351-13.118zM50.824 2.313l-14.351 13.118 14.351 14.056v-27.174zM17.003 17.858l-14.436 14.142h45.69l-14.439-14.142-3.769 3.444c-1.301 1.189-2.972 1.785-4.641 1.785s-3.336-0.595-4.637-1.785l-3.769-3.444z"></path>
</symbol>
<symbol id="icon-key" viewBox="0 0 19 32">
<path fill="#094c5d" style="fill: var(--color1, #094c5d)" d="M9.739 0c-5.379 0-9.739 4.176-9.739 9.328 0 4.698 3.63 8.573 8.348 9.221v12.1c-0.003 0.177 0.031 0.352 0.1 0.516s0.171 0.313 0.3 0.439c0.129 0.126 0.284 0.226 0.454 0.294s0.353 0.103 0.537 0.103c0.184 0 0.367-0.035 0.537-0.103s0.324-0.168 0.454-0.294c0.129-0.126 0.232-0.275 0.3-0.439s0.103-0.339 0.1-0.516v-12.1c4.717-0.648 8.348-4.523 8.348-9.221 0-5.152-4.36-9.328-9.739-9.328zM9.739 2.665c1.729 0 3.13 0.895 3.13 1.999s-1.401 1.999-3.13 1.999c-1.729 0-3.13-0.895-3.13-1.999s1.401-1.999 3.13-1.999z"></path>
</symbol>
<symbol id="icon-tel" viewBox="0 0 33 32">
<path fill="#094c5d" style="fill: var(--color1, #094c5d)" d="M25.054 20.715c-0.591-0.331-1.316-0.324-1.904 0.010l-2.976 1.696c-0.666 0.38-1.498 0.335-2.109-0.121-1.056-0.789-2.756-2.116-4.236-3.531s-2.867-3.041-3.692-4.051c-0.477-0.584-0.524-1.38-0.127-2.017l1.773-2.847c0.351-0.562 0.353-1.262 0.007-1.827l-4.367-7.135c-0.423-0.69-1.264-1.030-2.077-0.839-0.79 0.184-1.815 0.632-2.89 1.661-3.366 3.219-5.153 8.65 7.504 20.757s18.333 10.399 21.7 7.178c1.078-1.031 1.545-2.013 1.738-2.77 0.196-0.776-0.153-1.575-0.873-1.978-1.798-1.006-5.675-3.178-7.473-4.185z"></path>
</symbol>
</defs>
</svg>
